<?xml version="1.0" encoding="UTF-8"?>
<svg id="Layer_1" data-name="Layer 1" xmlns="http://www.w3.org/2000/svg" viewBox="0 0 159.77 28.42">
  <defs>
    <style>
      .cls-1 {
        fill: none;
        stroke: #fff;
        stroke-miterlimit: 10;
      }

      .cls-2 {
        fill: #fff;
        stroke-width: 0px;
      }
    </style>
  </defs>
  <path class="cls-2" d="M13.83,14.2c-.29-6.47,5.72-11.99,11.99-11.99,1.38,0,2.68.23,3.89.66l2.06-2.06c-1.88-.54-3.89-.8-5.9-.8C11.53,0,0,14.21,0,14.21c0,0,3.75,4.69,9.65,8.72l4.92-4.92c-.42-1.2-.68-2.49-.74-3.81Z"/>
  <path class="cls-2" d="M41.97,5.5l-4.9,4.9c.42,1.2.68,2.48.74,3.8.29,6.47-5.72,11.99-11.99,11.99-1.38,0-2.68-.23-3.88-.66l-2.09,2.09c1.88.54,3.89.8,5.9.8,14.35,0,25.88-14.21,25.88-14.21,0,0-3.75-4.69-9.65-8.72h0Z"/>
  <g>
    <line class="cls-1" x1="25.81" y1="2.19" x2="25.81" y2="26.24"/>
    <line class="cls-1" x1="37.96" y1="14.21" x2="13.66" y2="14.21"/>
  </g>
  <ellipse class="cls-1" cx="25.81" cy="14.21" rx="6.87" ry="6.79"/>
  <g>
    <path class="cls-2" d="M69.97,19.26h-1.93v-4.47c0-1.01,0-2.3.03-3.31-.24,1.01-.59,2.3-.9,3.29l-1.36,4.48h-2.1l-1.39-4.5c-.29-.98-.64-2.27-.87-3.26.03,1.01.03,2.28.03,3.29v4.47h-1.93v-9.67h3.05l2.19,7.89,2.19-7.89h3v9.67Z"/>
    <path class="cls-2" d="M72.32,16.35l-.97,2.91h-2.06l3.49-9.67h2.42l3.42,9.67h-2.1l-.95-2.91h-3.25ZM72.81,14.82h2.27l-1.12-3.57-1.15,3.57Z"/>
    <path class="cls-2" d="M84.64,12.44h-1.98c-.11-.98-.66-1.6-1.67-1.6-.77,0-1.36.36-1.36,1.15s.52,1.22,2.06,1.58c2.13.49,3.08,1.47,3.08,3.02,0,1.82-1.67,2.86-3.57,2.86-2.31,0-3.82-1.02-4.01-3.05h1.98c.21,1.06,1.02,1.61,2,1.61.88,0,1.58-.48,1.58-1.22,0-.81-.5-1.29-1.93-1.62-1.98-.48-3.22-1.16-3.22-2.94s1.61-2.83,3.46-2.83c2.31,0,3.36,1.32,3.57,3.04Z"/>
    <path class="cls-2" d="M88.88,11.11v8.15h-1.93v-8.15h-3.28v-1.51h8.49v1.51h-3.28Z"/>
    <path class="cls-2" d="M98.52,19.26h-6.98v-9.67h6.83v1.51h-4.9v2.55h4.55v1.53h-4.55v2.55h5.04v1.53Z"/>
    <path class="cls-2" d="M106.09,19.26h-2.12c-.24-.66-.38-1.25-.48-2.16-.13-1.04-.52-1.67-1.3-1.72-.27-.01-.5-.01-.76-.01h-1.12v3.89h-1.93v-9.67h3.53c.56,0,.92.01,1.4.07,1.4.17,2.54.9,2.54,2.56,0,1.25-.74,2.03-1.89,2.35.95.36,1.32,1.16,1.43,2.24.13,1.18.31,1.89.7,2.44ZM101.65,13.92c.34,0,.57,0,.78-.01.77-.07,1.39-.45,1.39-1.39s-.52-1.27-1.27-1.37c-.22-.03-.46-.04-.81-.04h-1.42v2.82h1.33Z"/>
    <path class="cls-2" d="M112.54,12.44h-1.98c-.11-.98-.66-1.6-1.67-1.6-.77,0-1.36.36-1.36,1.15s.52,1.22,2.06,1.58c2.13.49,3.08,1.47,3.08,3.02,0,1.82-1.67,2.86-3.57,2.86-2.31,0-3.82-1.02-4.01-3.05h1.98c.21,1.06,1.02,1.61,2,1.61.88,0,1.58-.48,1.58-1.22,0-.81-.5-1.29-1.93-1.62-1.97-.48-3.22-1.16-3.22-2.94s1.61-2.83,3.46-2.83c2.31,0,3.36,1.32,3.57,3.04Z"/>
    <path class="cls-2" d="M119.5,11.11v8.15h-1.93v-8.15h-3.28v-1.51h8.49v1.51h-3.28Z"/>
    <path class="cls-2" d="M131.64,19.26h-2.12c-.24-.66-.38-1.25-.48-2.16-.13-1.04-.52-1.67-1.3-1.72-.27-.01-.5-.01-.76-.01h-1.12v3.89h-1.93v-9.67h3.53c.56,0,.92.01,1.4.07,1.4.17,2.54.9,2.54,2.56,0,1.25-.74,2.03-1.89,2.35.95.36,1.32,1.16,1.43,2.24.13,1.18.31,1.89.7,2.44ZM127.2,13.92c.34,0,.57,0,.78-.01.77-.07,1.39-.45,1.39-1.39s-.52-1.27-1.27-1.37c-.22-.03-.46-.04-.81-.04h-1.42v2.82h1.33Z"/>
    <path class="cls-2" d="M135.08,16.35l-.97,2.91h-2.06l3.49-9.67h2.42l3.42,9.67h-2.1l-.95-2.91h-3.25ZM135.57,14.82h2.27l-1.12-3.57-1.15,3.57Z"/>
    <path class="cls-2" d="M151.1,14.3c0,2.96-1.76,4.64-4.01,4.9-.49.06-.71.06-1.23.06h-3.31v-9.67h3.33c.52,0,.74,0,1.23.06,2.24.27,3.98,1.7,3.98,4.65ZM149.06,14.33c0-1.91-.92-2.98-2.35-3.17-.32-.04-.6-.06-1.04-.06h-1.18v6.62h1.15c.42,0,.71,0,1.02-.04,1.44-.18,2.4-1.39,2.4-3.36Z"/>
    <path class="cls-2" d="M159.77,19.26h-6.98v-9.67h6.83v1.51h-4.9v2.55h4.55v1.53h-4.55v2.55h5.04v1.53Z"/>
  </g>
</svg>
