<svg width="742" height="150" viewBox="0 0 742 150" fill="none" xmlns="http://www.w3.org/2000/svg">
<path d="M697.7 112H682.04V30.568H698.672V64.264C701.912 59.404 709.04 56.164 716.816 56.164C731.936 56.164 741.548 67.936 741.548 85.54C741.548 102.28 730.856 113.404 715.52 113.404C707.96 113.404 701.48 110.056 698.564 105.088L697.7 112ZM698.78 84.676C698.78 92.776 704.18 98.176 711.956 98.176C719.84 98.176 724.808 92.668 724.808 84.676C724.808 76.684 719.84 71.176 711.956 71.176C704.18 71.176 698.78 76.576 698.78 84.676Z" fill="white"/>
<path d="M676.805 111.784L619.781 112V99.04L646.133 77.116C654.665 70.096 658.229 65.128 658.229 58.54C658.229 50.44 654.233 46.12 647.105 46.12C639.653 46.12 635.333 51.196 635.333 60.16H617.945C617.945 42.232 629.393 30.568 646.997 30.568C665.249 30.568 676.157 40.396 676.157 57.46C676.157 68.368 669.569 77.224 659.633 85.54L647.645 95.584H676.805V111.784Z" fill="white"/>
<path d="M571.867 112H556.207V30.568H572.839V64.264C576.079 59.404 583.207 56.164 590.983 56.164C606.103 56.164 615.715 67.936 615.715 85.54C615.715 102.28 605.023 113.404 589.687 113.404C582.127 113.404 575.647 110.056 572.731 105.088L571.867 112ZM572.947 84.676C572.947 92.776 578.347 98.176 586.123 98.176C594.007 98.176 598.975 92.668 598.975 84.676C598.975 76.684 594.007 71.176 586.123 71.176C578.347 71.176 572.947 76.576 572.947 84.676Z" fill="white"/>
<path d="M511.663 112H495.031V30.568H511.771V63.616C515.119 58.972 521.275 56.272 528.295 56.272C541.147 56.272 548.599 64.48 548.599 78.628V112H531.967V82.624C531.967 75.82 528.187 71.392 522.463 71.392C515.875 71.392 511.663 75.712 511.663 82.408V112Z" fill="white"/>
<path d="M434.947 84.784C434.947 68.152 446.395 56.272 462.595 56.272C478.579 56.272 489.163 65.02 490.243 79.168H473.503C472.315 73.768 468.967 71.176 463.243 71.176C456.223 71.176 451.687 76.468 451.687 84.784C451.687 93.424 455.899 98.5 463.027 98.5C468.859 98.5 472.423 95.8 473.503 90.508H490.243C489.163 104.116 478.147 113.404 463.027 113.404C445.963 113.404 434.947 102.064 434.947 84.784Z" fill="white"/>
<path d="M405.118 113.404C388.81 113.404 377.146 101.524 377.146 84.892C377.146 68.044 388.486 56.272 404.794 56.272C421.75 56.272 432.334 67.396 432.334 85V89.212L393.13 89.428C394.102 96.556 398.098 99.904 405.442 99.904C411.706 99.904 416.134 97.636 417.322 93.748H432.55C430.606 105.736 419.914 113.404 405.118 113.404ZM404.902 69.772C398.314 69.772 394.642 72.688 393.346 79.168H415.81C415.81 73.444 411.598 69.772 404.902 69.772Z" fill="white"/>
<path d="M367.174 112H350.542V71.824H340.282V58H350.542V41.26H367.174V58H377.434V71.824H367.174V112Z" fill="white"/>
<path d="M300.814 112H284.182V58H299.842L300.922 63.616C304.27 58.972 310.426 56.272 317.446 56.272C330.298 56.272 337.75 64.48 337.75 78.628V112H321.118V82.624C321.118 75.82 317.338 71.392 311.614 71.392C305.026 71.392 300.814 75.712 300.814 82.408V112Z" fill="white"/>
<path d="M259.144 112V71.824H239.272V112H222.64V71.824H215.188V58H222.64V53.68C222.64 37.588 230.956 30.568 243.592 30.568C245.86 30.568 248.452 30.784 251.044 31.216V45.472H246.4C240.676 45.472 239.272 49.036 239.272 53.68V58H275.884V112H259.144ZM267.568 49.576C262.276 49.576 258.064 45.364 258.064 40.072C258.064 34.78 262.276 30.676 267.568 30.676C272.752 30.676 276.964 34.78 276.964 40.072C276.964 45.364 272.752 49.576 267.568 49.576Z" fill="white"/>
<g clip-path="url(#clip0_634_2525)">
<path d="M129.552 0H75.005C62.2766 0 56.2519 8.52136 49.2822 20.2936C48.6792 21.3121 48.1005 22.3215 47.5312 23.3144C42.0506 32.873 37.4431 40.9091 20.4584 40.9091C9.16179 40.9091 0.00341797 50.0673 0.00341797 61.3636C0.00341797 72.66 9.16179 81.8182 20.4584 81.8182C31.755 81.8182 40.9134 72.66 40.9134 61.3636C40.9134 47.7055 40.9134 40.9091 54.55 40.9091H129.552C140.848 40.9091 150.007 31.7509 150.007 20.4545C150.007 9.15818 140.848 0 129.552 0Z" fill="url(#paint0_linear_634_2525)"/>
<path d="M75.0092 95.4549C86.3062 95.4549 95.4642 86.2971 95.4642 75.0003C95.4642 63.7036 86.3062 54.5458 75.0092 54.5458C63.7122 54.5458 54.5542 63.7036 54.5542 75.0003C54.5542 86.2971 63.7122 95.4549 75.0092 95.4549Z" fill="url(#paint1_linear_634_2525)"/>
<path d="M109.097 88.6377C109.097 77.3414 118.255 68.1832 129.552 68.1832C140.848 68.1832 150.007 77.3414 150.007 88.6377C150.007 99.9341 140.848 109.092 129.552 109.092C112.567 109.092 107.959 117.128 102.479 126.687C101.91 127.68 101.331 128.689 100.728 129.708C93.7581 141.48 87.7335 150.001 75.005 150.001H20.4584C9.16179 150.001 0.00341797 140.843 0.00341797 129.547C0.00341797 118.25 9.16179 109.092 20.4584 109.092H95.46C109.097 109.092 109.097 102.296 109.097 88.6377Z" fill="url(#paint2_linear_634_2525)"/>
</g>
<defs>
<linearGradient id="paint0_linear_634_2525" x1="27.455" y1="-3.9069e-07" x2="154.139" y2="116.809" gradientUnits="userSpaceOnUse">
<stop stop-color="#FFD400"/>
<stop offset="0.515625" stop-color="#FF215B"/>
<stop offset="1" stop-color="#FF92E2"/>
</linearGradient>
<linearGradient id="paint1_linear_634_2525" x1="27.455" y1="-3.9069e-07" x2="154.139" y2="116.809" gradientUnits="userSpaceOnUse">
<stop stop-color="#FFD400"/>
<stop offset="0.515625" stop-color="#FF215B"/>
<stop offset="1" stop-color="#FF92E2"/>
</linearGradient>
<linearGradient id="paint2_linear_634_2525" x1="27.455" y1="-3.9069e-07" x2="154.139" y2="116.809" gradientUnits="userSpaceOnUse">
<stop stop-color="#FFD400"/>
<stop offset="0.515625" stop-color="#FF215B"/>
<stop offset="1" stop-color="#FF92E2"/>
</linearGradient>
<clipPath id="clip0_634_2525">
<rect width="150.003" height="150" fill="white"/>
</clipPath>
</defs>
</svg>
