<svg viewBox="0 0 24 24" fill="none" xmlns="http://www.w3.org/2000/svg">
<path d="M11.6495 17.7644C14.1055 17.7644 16.0965 15.772 16.0965 13.3142C16.0965 10.8564 14.1055 8.86401 11.6495 8.86401C9.19358 8.86401 7.20264 10.8564 7.20264 13.3142C7.20264 15.772 9.19358 17.7644 11.6495 17.7644Z" fill="#E58613"/>
<path d="M11.6488 16.8595C13.6055 16.8595 15.1917 15.2722 15.1917 13.3141C15.1917 11.3559 13.6055 9.76855 11.6488 9.76855C9.69216 9.76855 8.10596 11.3559 8.10596 13.3141C8.10596 15.2722 9.69216 16.8595 11.6488 16.8595Z" fill="white"/>
<path d="M11.8031 12.666C11.9813 12.6645 12.1585 12.6943 12.3264 12.7539C12.4831 12.8096 12.6274 12.8954 12.751 13.0067C12.8731 13.126 12.969 13.2695 13.0328 13.4279C13.0951 13.6079 13.1236 13.7979 13.117 13.9883C13.1206 14.2057 13.0834 14.4219 13.0072 14.6256C12.9384 14.8092 12.8267 14.9737 12.6815 15.1054C12.5269 15.2434 12.3447 15.347 12.1471 15.4094C11.9099 15.4815 11.663 15.5161 11.4151 15.5119C11.3066 15.5174 11.1979 15.5174 11.0894 15.5119C10.9847 15.505 10.8807 15.4903 10.7783 15.468C10.6825 15.4514 10.5882 15.4269 10.4964 15.3947C10.413 15.3679 10.3322 15.3335 10.2549 15.2922V14.4901C10.3342 14.5329 10.4161 14.5708 10.5001 14.6036C10.5933 14.6389 10.6887 14.6683 10.7856 14.6915C10.8832 14.7175 10.9822 14.7383 11.082 14.7538C11.1766 14.7678 11.272 14.7752 11.3675 14.7757C11.5845 14.7912 11.8002 14.7317 11.9787 14.6073C12.0534 14.5425 12.1116 14.4609 12.1486 14.3692C12.1855 14.2775 12.2 14.1783 12.191 14.0798C12.1968 13.9872 12.1814 13.8945 12.1459 13.8088C12.1103 13.7231 12.0557 13.6467 11.9861 13.5854C11.799 13.4585 11.5745 13.3991 11.3492 13.4169H11.1845L11.0088 13.4425L10.8478 13.4718L10.7124 13.5085L10.3464 13.3107L10.5111 11.0764H12.8242V11.8602H11.3236L11.2504 12.721L11.4737 12.6807C11.5829 12.6667 11.693 12.6618 11.8031 12.666Z" fill="black"/>
<path d="M11.6638 7.4392C12.6522 7.4392 13.4535 6.44545 13.4535 5.2196C13.4535 3.99375 12.6522 3 11.6638 3C10.6753 3 9.87402 3.99375 9.87402 5.2196C9.87402 6.44545 10.6753 7.4392 11.6638 7.4392Z" fill="#678925"/>
<path d="M14.511 9.25957C14.6479 8.89254 14.7508 8.51369 14.8184 8.12779C15.1002 8.26697 15.3125 9.36212 15.2832 9.9335C16.0974 10.797 16.5764 11.9232 16.6338 13.1091C17.2194 12.2117 18.9359 6.00342 13.757 4.46509C14.0352 7.51246 11.96 7.85675 11.7184 7.86408C11.4768 7.8714 9.22593 7.58205 9.52239 4.52003C6.11858 5.26356 5.8331 8.39883 5.93192 9.54892C6.67033 9.12872 7.49303 8.87848 8.3402 8.81638C8.39626 8.56265 8.51307 8.32634 8.68058 8.12779C8.68058 8.39883 8.69889 8.55266 8.70255 8.77609C8.86725 8.75411 9.30645 8.71016 9.87741 8.68818C10.6382 8.39841 11.4584 8.29965 12.2661 8.40054C13.0739 8.50142 13.8447 8.79889 14.511 9.26689V9.25957Z" fill="#678925"/>
<path d="M20.605 18.3976C21.0994 17.541 20.6403 16.3496 19.5796 15.7365C18.5188 15.1234 17.2582 15.3208 16.7638 16.1773C16.2694 17.0339 16.7285 18.2253 17.7893 18.8384C18.85 19.4515 20.1107 19.2542 20.605 18.3976Z" fill="#2F6FA8"/>
<path d="M16.3559 16.0027C16.4804 15.7829 17.8455 13.9845 20.3417 15.7829C21.4177 12.4572 18.8484 10.6551 17.8016 10.1533C17.8043 11.0053 17.6141 11.8468 17.2453 12.6147C17.4343 12.7919 17.5786 13.0116 17.6662 13.2556L17.0916 12.9516C17.0294 13.1018 16.8573 13.4864 16.6011 13.9772C16.4967 14.7972 16.1906 15.5784 15.7103 16.2509C15.2299 16.9234 14.5903 17.4661 13.8488 17.8303C14.0789 18.0943 14.3298 18.3393 14.5991 18.5629C14.3649 18.7167 13.5011 18.4384 12.9631 18.1563C11.8095 18.4667 10.5831 18.355 9.50439 17.8413C10.3755 19.116 14.5808 22.9801 18.2774 19.4822C15.4995 18.1893 16.2388 16.2151 16.3559 16.0027Z" fill="#2F6FA8"/>
<path d="M6.52867 16.1639C6.03091 15.3068 4.77187 15.1127 3.71047 15.7244C2.64907 16.3361 2.20621 17.5301 2.70397 18.3835C3.20173 19.2369 4.46077 19.4384 5.51851 18.823C6.57625 18.2077 7.03376 17.021 6.52867 16.1639Z" fill="#C1A840"/>
<path d="M6.6641 13.3474C6.6641 13.157 6.6641 12.9812 6.69704 12.7834C6.30502 12.849 5.92018 12.952 5.5478 13.091C5.52584 12.7651 6.42254 11.9922 6.92396 11.7578C7.19671 10.9456 7.67453 10.2176 8.3111 9.64445C8.53054 9.4128 8.7762 9.20752 9.04311 9.03277C8.35868 8.86063 1.60963 10.3953 2.93455 15.8198C5.42702 14.0507 6.76658 15.6733 6.89102 15.882C7.01546 16.0908 7.90118 18.1932 5.10128 19.4825C7.44002 22.0464 10.2948 20.7314 11.2428 20.0685C10.503 19.646 9.8686 19.0612 9.38715 18.358C9.14021 18.4311 8.87997 18.4473 8.62586 18.4056L9.17487 18.0394C9.09435 17.9331 8.91134 17.6731 8.68808 17.3398C8.06283 16.8785 7.55413 16.2772 7.20268 15.584C6.85123 14.8907 6.66678 14.1248 6.6641 13.3474Z" fill="#C1A840"/>
</svg>
