<svg viewBox="0 0 24 24" fill="none" xmlns="http://www.w3.org/2000/svg">
<path d="M11.6486 17.7642C14.1045 17.7642 16.0955 15.7718 16.0955 13.314C16.0955 10.8562 14.1045 8.86377 11.6486 8.86377C9.19261 8.86377 7.20166 10.8562 7.20166 13.314C7.20166 15.7718 9.19261 17.7642 11.6486 17.7642Z" fill="#E58613"/>
<path d="M11.6488 16.8593C13.6055 16.8593 15.1917 15.272 15.1917 13.3138C15.1917 11.3557 13.6055 9.76831 11.6488 9.76831C9.69216 9.76831 8.10596 11.3557 8.10596 13.3138C8.10596 15.272 9.69216 16.8593 11.6488 16.8593Z" fill="white"/>
<path d="M12.9991 14.5152H12.4721V15.4236H11.5717V14.5152H9.7417V13.8706L11.6229 11.0576H12.4721V13.8156H12.9991V14.5152ZM11.5717 13.7827V12.9403C11.5717 12.889 11.5717 12.834 11.5717 12.7718C11.5717 12.7095 11.5717 12.6472 11.5717 12.5813V12.3908C11.5717 12.3322 11.5717 12.281 11.5717 12.2334C11.5717 12.1857 11.5717 12.1564 11.5717 12.1381H11.5461L11.4253 12.4055C11.3814 12.4971 11.3265 12.5923 11.2716 12.6875L10.5396 13.7863L11.5717 13.7827Z" fill="black"/>
<path d="M11.6638 7.43897C12.6522 7.43897 13.4535 6.44522 13.4535 5.21937C13.4535 3.99351 12.6522 2.99976 11.6638 2.99976C10.6753 2.99976 9.87402 3.99351 9.87402 5.21937C9.87402 6.44522 10.6753 7.43897 11.6638 7.43897Z" fill="#678925"/>
<path d="M14.511 9.25935C14.6479 8.89232 14.7508 8.51346 14.8184 8.12757C15.1002 8.26675 15.3125 9.3619 15.2832 9.93329C16.0974 10.7968 16.5764 11.923 16.6338 13.1089C17.2194 12.2115 18.9359 6.00319 13.757 4.46484C14.0352 7.51223 11.9599 7.85652 11.7184 7.86385C11.4768 7.87118 9.22592 7.58182 9.52238 4.51978C6.11858 5.26332 5.8331 8.39861 5.93192 9.5487C6.67033 9.1285 7.49303 8.87826 8.3402 8.81616C8.39626 8.56243 8.51307 8.32612 8.68058 8.12757C8.68058 8.39861 8.69888 8.55244 8.70254 8.77587C8.86724 8.75389 9.30644 8.70994 9.8774 8.68796C10.6382 8.39819 11.4584 8.29943 12.2661 8.40031C13.0739 8.5012 13.8447 8.79866 14.511 9.26667V9.25935Z" fill="#678925"/>
<path d="M20.6045 18.3971C21.0989 17.5405 20.6398 16.3491 19.5791 15.736C18.5183 15.1229 17.2577 15.3203 16.7633 16.1768C16.2689 17.0334 16.7281 18.2248 17.7888 18.8379C18.8495 19.451 20.1102 19.2537 20.6045 18.3971Z" fill="#2F6FA8"/>
<path d="M16.3554 16.0024C16.4799 15.7827 17.8451 13.9843 20.3412 15.7827C21.4172 12.4569 18.8479 10.6549 17.8011 10.1531C17.8038 11.005 17.6136 11.8465 17.2448 12.6144C17.4338 12.7917 17.5781 13.0114 17.6657 13.2554L17.0911 12.9514C17.0289 13.1016 16.8569 13.4862 16.6007 13.977C16.4962 14.797 16.1901 15.5782 15.7098 16.2507C15.2294 16.9232 14.5898 17.4659 13.8483 17.8301C14.0784 18.0941 14.3293 18.3391 14.5986 18.5627C14.3644 18.7165 13.5006 18.4382 12.9626 18.1561C11.809 18.4665 10.5826 18.3548 9.50391 17.8411C10.375 19.1158 14.5803 22.9799 18.2769 19.482C15.499 18.1891 16.2383 16.2149 16.3554 16.0024Z" fill="#2F6FA8"/>
<path d="M6.52867 16.1637C6.03091 15.3066 4.77187 15.1125 3.71047 15.7241C2.64907 16.3358 2.20621 17.5299 2.70397 18.3833C3.20173 19.2367 4.46077 19.4381 5.51851 18.8228C6.57625 18.2075 7.03375 17.0207 6.52867 16.1637Z" fill="#C1A840"/>
<path d="M6.6641 13.347C6.6641 13.1565 6.6641 12.9807 6.69704 12.7829C6.30502 12.8485 5.92018 12.9515 5.5478 13.0906C5.52584 12.7646 6.42254 11.9918 6.92396 11.7574C7.19671 10.9451 7.67453 10.2171 8.3111 9.64396C8.53053 9.41231 8.77619 9.20704 9.0431 9.03229C8.35868 8.86014 1.60963 10.3948 2.93455 15.8193C5.42702 14.0502 6.76658 15.6728 6.89102 15.8816C7.01546 16.0904 7.90118 18.1928 5.10128 19.482C7.44002 22.0459 10.2948 20.731 11.2428 20.0681C10.503 19.6455 9.86859 19.0607 9.38714 18.3576C9.1402 18.4306 8.87996 18.4469 8.62586 18.4052L9.17486 18.0389C9.09434 17.9327 8.91134 17.6726 8.68808 17.3393C8.06283 16.8781 7.55413 16.2768 7.20268 15.5835C6.85123 14.8903 6.66678 14.1243 6.6641 13.347Z" fill="#C1A840"/>
</svg>
