<?xml version="1.0" encoding="UTF-8"?>
<svg id="Layer_1" data-name="Layer 1" xmlns="http://www.w3.org/2000/svg" viewBox="0 0 135.03 74.35">
  <defs>
    <style>
      .cls-1 {
        stroke: #000;
      }

      .cls-1, .cls-2 {
        fill: none;
        stroke-miterlimit: 10;
      }

      .cls-2 {
        stroke: #010101;
      }

      .cls-3 {
        fill: #020202;
        stroke-width: 0px;
      }
    </style>
  </defs>
  <path class="cls-3" d="M36.18,37.14c-.76-16.93,14.96-31.36,31.36-31.36,3.61,0,7.02.61,10.18,1.72l5.4-5.4c-4.91-1.4-10.17-2.1-15.43-2.1C30.16,0,0,37.18,0,37.18c0,0,9.82,12.28,25.25,22.8l12.87-12.87c-1.11-3.15-1.78-6.5-1.94-9.97Z"/>
  <path class="cls-3" d="M109.78,14.38l-12.81,12.81c1.11,3.14,1.78,6.49,1.93,9.95.76,16.93-14.96,31.36-31.36,31.36-3.6,0-7.01-.61-10.16-1.72l-5.47,5.47c4.91,1.4,10.17,2.1,15.43,2.1,37.53,0,67.69-37.18,67.69-37.18,0,0-9.82-12.28-25.25-22.8Z"/>
  <g>
    <line class="cls-2" x1="67.51" y1="5.72" x2="67.51" y2="68.64"/>
    <line class="cls-2" x1="99.29" y1="37.18" x2="35.74" y2="37.18"/>
  </g>
  <ellipse class="cls-1" cx="67.51" cy="37.18" rx="17.97" ry="17.76"/>
</svg>